<?xml version="1.0" standalone="no"?><!DOCTYPE svg PUBLIC "-//W3C//DTD SVG 1.1//EN" "http://www.w3.org/Graphics/SVG/1.1/DTD/svg11.dtd"><svg t="1596426477730" class="icon" viewBox="0 0 1024 1024" version="1.1" xmlns="http://www.w3.org/2000/svg" p-id="3697" xmlns:xlink="http://www.w3.org/1999/xlink" width="200" height="200"><defs><style type="text/css"></style></defs><path d="M908.61 438.46c-19.5 33.52 29.55 47.6 57.53 24.65 5.4 30.22 30.3 40.93 49.32 57.53-15.9 19.72-46.14 25.1-49.32 57.54C941 584.14 942 564 916.83 570q-18.29 10.43-16.45 41c12-9.92 7.91-35.93 41.1-24.66C829.64 713 698.82 864.09 571.64 948c-13-32.16 21.33-17 24.64-32.88-7.46-22.31-28.79 8.37-41.08 8.22-1.22 20.38-1.52 39.87 16.44 41.09-16.92 21.44-44 32.71-57.54 57.54-29.35-9-32.57-44.15-65.76-49.32 3.51-15.67 23.5-14.87 16.45-41.1-5.67-16.25-21.92-21.91-41.09-24.66-8 29.91 40 3.8 24.64 41.1C322.6 862.66 190.73 712.64 78.5 586.39c21.47-2.29 41.13-2.77 32.87 24.66 24.1-6.95-4.9-26.45 0-41.09-28.5-6.58-31.59 12.25-57.53 8.22C51 548.12 25.7 540.57 4.53 528.86c6.12-32.22 48.46-28.25 49.32-65.75 27.42 17 55.82 20.91 65.75-16.44-10.48-15.3-13.1 32.82-41.09 8.23 111.8-126.67 244.71-275.65 369.83-361.63 13 32.15-21.33 17-24.64 32.87 7.46 22.31 28.8-8.38 41.09-8.22 1.21-20.39 1.53-39.92-16.45-41.1 53-41.28 65.76-74 65.76-74S536 44 571.64 68.6c6.11 25.3-22.57 15.8-16.44 41.1 5.67 16.24 21.93 21.91 41.08 24.66 8-29.91-40-3.81-24.64-41.09 124.73 86.37 258.61 234.39 369.85 361.63-14.58-1.87-41.17 8.28-32.88-16.44M514.1 126.14c-1.92-26 48.37-41.78 8.22-57.54 1.21 20.39 1.53 39.88-16.44 41.1-0.9-20.44-15.41-25.44 0-41.1-22.09-5.66-15.88 17-24.65 24.67 19.29 2.62 18.38 25.42 32.87 32.87M390.82 159q-114 124.3-238.35 238.34c-2.12 47.65 2.39 73-32.87 98.63 39.55-2.7 25.23 53.91 0 57.54 40.46 18.37 27.69 46.26 32.87 90.4Q276.78 758 390.82 882.28c33.73-23.88 78.85 29.12 98.63 16.44-19.83-6.12 68.67-17.75 41.1 8.21 153.27-30.5 220.74-173.39 337-263-9.13-53 11.1-76.56 32.87-98.63-39.54 2.71-25.23-53.91 0-57.52-36-5.14-34.89-47.29-32.87-90.42C754.38 312 673 149.79 530.54 142.57c8.28 0.1 10.33 14.41 0 16.44-15.86-24.44-50.3 20.75-41.1-24.65-31.36 11.67-60.52 44-98.63 24.65M94.93 520.64c-9.24 28-31.84-2.59-41.09 16.44 22.63 22.76 34.34-7.38 57.53-8.22-1-24.38-48.74-49.22-57.53-16.43 21-4.33 28.76-10.9 41.09 8.21m813.67-8.21c1 24.38 48.74 49.21 57.53 16.43-21 4.32-28.77 10.9-41.09-8.22 9.24-28.05 31.84 2.59 41.09-16.44-22.63-22.76-34.34 7.38-57.53 8.22M514.1 972.68c50.3-4.67 3.32-42.9-8.22-57.53-8.86 21.22-39.42 69.66 0 49.31-20.46-3.34-0.49-31.86 16.44-24.64 0.62 14.3-1.83 25.55-8.22 32.87" fill="#DF1815" p-id="3698"></path><path d="M859.29 405.58c10.65 71.33 6.16 164.24 0 238.35-81.51 69.16-148.61 152.75-230.11 221.91-100.08 16.73-141.07 14.55-246.58 0-65.72-79.47-146.43-144-213.7-221.91-21.29-59.36-16.32-164.63-8.21-230.13Q274.73 289.48 399 175.45c81.8-4.67 145-29 213.7 0C711 216.95 766.06 349 859.29 405.58M612.73 191.89C420.06 111 297.43 286.73 177.12 413.8c-7.77 51.05-3.33 169.07 0 221.91 119.54 87.06 218.21 315 443.83 213.69 48.68-21.86 180.46-145.67 213.68-221.91 31.06-71.27 14.94-150.13 0-221.91-85-66.69-131.12-175.57-221.9-213.69" fill="#DF1815" p-id="3699"></path><path d="M569.15 409c-24.18 10.58-47.46 22.13-68.22 32.43-29.07-2.43-41.27-18.69-47.33-43.43 5.92-21.8 21.34-43 13.74-71.14l21.27-1.62 32.9 37.31V234.86l22.07-26.41c25 15.92 54.15 20.8 71.05 43.68 5.26 26.07-7.89 47.69-16 71.49l12.4 2.46 21.33-53c24.87-3.17 48-3.29 66.88 17.28v43.13c-22.44 27.27-48.26 58.62-74 89.89l27.92 12.64v23.28c-21.23 33.91-64.87 40.93-91.48 69.67v24.49c3 0.89 6.66 3.21 9.75 2.64 20.14-3.69 40-9.66 60.27-11.73 26.3-2.68 52.9-2.94 79.38-3.11 7.76-0.05 35.92 24.93 42.9 34 3.84 5 9 9 14.42 14.18 6.38 60.43-15.18 113.36-46.19 163.66a15.26 15.26 0 0 1-5.42 5.38c-15.74 8.31-31.34 17-47.57 24.26-7.6 3.41-16.49 3.95-27.28 6.34l-40.48-56.67-20.05 10-19.72-25.29V611.41H540.4v80.23l-27 14.9-20.4-29.39v-36.93l-32.18 18c6.32 24.69 22 45.82 14.36 73l-16 16h-32.83c-14.27-27.74-30.46-56.16-25.26-98.21l-56.17 67.53c-20.83 4.95-34.37-6.13-49.71-13.73-18.75-9.29-30.23-24.41-44.73-41.17 35.32-15.81 64.52-35.32 88-63.58v-37.52l-52.93-52.32c11.47-28.84 56.21-30.8 62.57-70.71-45.37-17.51-66.35-54.79-79.31-101.06 20.75-16.76 50-13 72.37-26.22 21.58-12.68 44.13-23.08 65.89-33.31 34.9 25.41 23.46 55.63 14.51 84.33-3.09 9.91-11.39 18.66-18.68 26.69-10.2 11.22-18.73 22.66-18.1 39.22L414.23 450c5.74 36.15 0.09 66.63-28.84 86.32v18c2.45-0.29 4.57 0 6-0.81 14.92-9 29.73-18.13 48.85-29.87-3.75 17-8.9 29.64-8.63 42.15 0.27 12.66-20 23-2.08 38.14 20.85-13.15 36.83-31 47.9-54.58l-35.26-49.57c49.09-18.83 95.11-37.58 127.15-79.26 0-2.52 0-6.37-0.15-11.42 4.78 1.13 9.37 0.77 15.65 0.28-0.62-5.62-1.08-9.82-1.59-14.48l-13.09 1.1c-0.39 5-0.75 9.62-0.99 13z m47.59 178.73v112.13c4 4 6.43 7.18 9.56 9.27 1.82 1.22 4.78 0.71 9.57 1.25 26-36.12 19.47-81.47 34.51-122.61z" fill="#E72B1D" p-id="3700"></path></svg>