<svg id="SvgjsSvg1006" width="901" height="223" xmlns="http://www.w3.org/2000/svg" version="1.1" xmlns:xlink="http://www.w3.org/1999/xlink" xmlns:svgjs="http://svgjs.com/svgjs"><defs id="SvgjsDefs1007"><marker id="SvgjsMarker1016" markerWidth="16" markerHeight="12" refX="16" refY="6" viewBox="0 0 16 12" orient="auto" markerUnits="userSpaceOnUse"><path id="SvgjsPath1017" d="M0,2 L14,6 L0,11 L0,2" fill="#323232" stroke="#323232" stroke-width="2"></path></marker><marker id="SvgjsMarker1026" markerWidth="16" markerHeight="12" refX="16" refY="6" viewBox="0 0 16 12" orient="auto" markerUnits="userSpaceOnUse"><path id="SvgjsPath1027" d="M0,2 L14,6 L0,11 L0,2" fill="#323232" stroke="#323232" stroke-width="2"></path></marker></defs><g id="SvgjsG1008" transform="translate(66.25,25)"><path id="SvgjsPath1009" d="M 0 4Q 0 0 4 0L 114 0Q 118 0 118 4L 118 32Q 118 36 114 36L 4 36Q 0 36 0 32Z" stroke="#323232" stroke-width="2" fill-opacity="1" fill="#ffffff"></path><g id="SvgjsG1010"><text id="SvgjsText1011" font-family="微软雅黑" text-anchor="middle" font-size="13px" width="84" fill="#323232" font-weight="400" align="middle" anchor="middle" family="微软雅黑" size="13px" weight="400" font-style="" y="8.05" transform="rotate(0)"><tspan id="SvgjsTspan1012" dy="16" x="59"><tspan id="SvgjsTspan1013" style="text-decoration:;">分词/词法分析</tspan></tspan></text></g></g><g id="SvgjsG1014"><path id="SvgjsPath1015" d="M184.25 43L284.25 43L284.25 43L384.25 43" stroke="#323232" stroke-width="2" fill="none" marker-end="url(#SvgjsMarker1016)"></path></g><g id="SvgjsG1018" transform="translate(384.25,25)"><path id="SvgjsPath1019" d="M 0 4Q 0 0 4 0L 111 0Q 115 0 115 4L 115 32Q 115 36 111 36L 4 36Q 0 36 0 32Z" stroke="#323232" stroke-width="2" fill-opacity="1" fill="#ffffff"></path><g id="SvgjsG1020"><text id="SvgjsText1021" font-family="微软雅黑" text-anchor="middle" font-size="13px" width="84" fill="#323232" font-weight="400" align="middle" anchor="middle" family="微软雅黑" size="13px" weight="400" font-style="" y="8.05" transform="rotate(0)"><tspan id="SvgjsTspan1022" dy="16" x="57.5"><tspan id="SvgjsTspan1023" style="text-decoration:;">解析/语法分析</tspan></tspan></text></g></g><g id="SvgjsG1024"><path id="SvgjsPath1025" d="M499.25 43L610.25 43L610.25 43L721.25 43" stroke="#323232" stroke-width="2" fill="none" marker-end="url(#SvgjsMarker1026)"></path></g><g id="SvgjsG1028" transform="translate(721.25,25)"><path id="SvgjsPath1029" d="M 0 4Q 0 0 4 0L 106 0Q 110 0 110 4L 110 32Q 110 36 106 36L 4 36Q 0 36 0 32Z" stroke="#323232" stroke-width="2" fill-opacity="1" fill="#ffffff"></path><g id="SvgjsG1030"><text id="SvgjsText1031" font-family="微软雅黑" text-anchor="middle" font-size="13px" width="52" fill="#323232" font-weight="400" align="middle" anchor="middle" family="微软雅黑" size="13px" weight="400" font-style="" y="8.05" transform="rotate(0)"><tspan id="SvgjsTspan1032" dy="16" x="55"><tspan id="SvgjsTspan1033" style="text-decoration:;">代码生成</tspan></tspan></text></g></g><g id="SvgjsG1034" transform="translate(25,82)"><path id="SvgjsPath1035" d="M 0 0L 184.5 0L 200.5 16L 200.5 113L 0 113L 0 0Z" stroke="none" fill-opacity="1" fill="#ffffaa"></path><path id="SvgjsPath1036" d="M 184.5 0L 184.5 16L 200.5 16Z" stroke="none" fill-opacity="1" fill="#cdcdcd"></path><path id="SvgjsPath1037" d="M 0 0L 184.5 0L 200.5 16L 200.5 113L 0 113L 0 0Z" stroke="none" fill="none"></path><g id="SvgjsG1038"><text id="SvgjsText1039" font-family="微软雅黑" text-anchor="start" font-size="14px" width="181" fill="#323232" font-weight="400" align="middle" anchor="start" family="微软雅黑" size="14px" weight="400" font-style="" y="9.4" transform="rotate(0)"><tspan id="SvgjsTspan1040" dy="17" x="10"><tspan id="SvgjsTspan1041" style="text-decoration:;">关键词：词法单元；</tspan></tspan><tspan id="SvgjsTspan1042" dy="17" x="10"><tspan id="SvgjsTspan1043" style="text-decoration:;">例：变量声明 var name="剑</tspan></tspan><tspan id="SvgjsTspan1044" dy="17" x="10"><tspan id="SvgjsTspan1045" style="text-decoration:;">大瑞"；会被分解为：</tspan></tspan><tspan id="SvgjsTspan1046" dy="17" x="10"><tspan id="SvgjsTspan1047" style="text-decoration:;">var、name、"剑大瑞"、；</tspan></tspan><tspan id="SvgjsTspan1048" dy="17" x="10"><tspan id="SvgjsTspan1049" style="text-decoration:;"> </tspan></tspan></text></g></g><g id="SvgjsG1050" transform="translate(341.5,82)"><path id="SvgjsPath1051" d="M 0 0L 184.5 0L 200.5 16L 200.5 113L 0 113L 0 0Z" stroke="none" fill-opacity="1" fill="#ffffaa"></path><path id="SvgjsPath1052" d="M 184.5 0L 184.5 16L 200.5 16Z" stroke="none" fill-opacity="1" fill="#cdcdcd"></path><path id="SvgjsPath1053" d="M 0 0L 184.5 0L 200.5 16L 200.5 113L 0 113L 0 0Z" stroke="none" fill="none"></path><g id="SvgjsG1054"><text id="SvgjsText1055" font-family="微软雅黑" text-anchor="start" font-size="14px" width="168" fill="#323232" font-weight="400" align="middle" anchor="start" family="微软雅黑" size="14px" weight="400" font-style="" y="9.4" transform="rotate(0)"><tspan id="SvgjsTspan1056" dy="17" x="10"><tspan id="SvgjsTspan1057" style="text-decoration:;">关键词：AST树；</tspan></tspan><tspan id="SvgjsTspan1058" dy="17" x="10"><tspan id="SvgjsTspan1059" style="text-decoration:;">将词法单元流转换成一个由</tspan></tspan><tspan id="SvgjsTspan1060" dy="17" x="10"><tspan id="SvgjsTspan1061" style="text-decoration:;">元素逐级嵌套所组成的程序</tspan></tspan><tspan id="SvgjsTspan1062" dy="17" x="10"><tspan id="SvgjsTspan1063" style="text-decoration:;">语法结构树；</tspan></tspan><tspan id="SvgjsTspan1064" dy="17" x="10"><tspan id="SvgjsTspan1065" style="text-decoration:;"> </tspan></tspan></text></g></g><g id="SvgjsG1066" transform="translate(676,85)"><path id="SvgjsPath1067" d="M 0 0L 184.5 0L 200.5 16L 200.5 113L 0 113L 0 0Z" stroke="none" fill-opacity="1" fill="#ffffaa"></path><path id="SvgjsPath1068" d="M 184.5 0L 184.5 16L 200.5 16Z" stroke="none" fill-opacity="1" fill="#cdcdcd"></path><path id="SvgjsPath1069" d="M 0 0L 184.5 0L 200.5 16L 200.5 113L 0 113L 0 0Z" stroke="none" fill="none"></path><g id="SvgjsG1070"><text id="SvgjsText1071" font-family="微软雅黑" text-anchor="start" font-size="14px" width="180" fill="#323232" font-weight="400" align="middle" anchor="start" family="微软雅黑" size="14px" weight="400" font-style="" y="18.4" transform="rotate(0)"><tspan id="SvgjsTspan1072" dy="17" x="10"><tspan id="SvgjsTspan1073" style="text-decoration:;">关键词：代码生成；</tspan></tspan><tspan id="SvgjsTspan1074" dy="17" x="10"><tspan id="SvgjsTspan1075" style="text-decoration:;">将AST转化为一组机器指令，</tspan></tspan><tspan id="SvgjsTspan1076" dy="17" x="10"><tspan id="SvgjsTspan1077" style="text-decoration:;">分配内存空间存储变量。</tspan></tspan><tspan id="SvgjsTspan1078" dy="17" x="10"><tspan id="SvgjsTspan1079" style="text-decoration:;"> </tspan></tspan></text></g></g></svg>