<svg id="SvgjsSvg1334" width="1472" height="530" xmlns="http://www.w3.org/2000/svg" version="1.1" xmlns:xlink="http://www.w3.org/1999/xlink" xmlns:svgjs="http://svgjs.com/svgjs"><defs id="SvgjsDefs1335"><marker id="SvgjsMarker1344" markerWidth="16" markerHeight="12" refX="16" refY="6" viewBox="0 0 16 12" orient="auto" markerUnits="userSpaceOnUse"><path id="SvgjsPath1345" d="M0,2 L14,6 L0,11 L0,2" fill="#323232" stroke="#323232" stroke-width="2"></path></marker><marker id="SvgjsMarker1354" markerWidth="16" markerHeight="12" refX="16" refY="6" viewBox="0 0 16 12" orient="auto" markerUnits="userSpaceOnUse"><path id="SvgjsPath1355" d="M0,2 L14,6 L0,11 L0,2" fill="#323232" stroke="#323232" stroke-width="2"></path></marker><marker id="SvgjsMarker1370" markerWidth="16" markerHeight="12" refX="16" refY="6" viewBox="0 0 16 12" orient="auto" markerUnits="userSpaceOnUse"><path id="SvgjsPath1371" d="M0,2 L14,6 L0,11 L0,2" fill="#323232" stroke="#323232" stroke-width="2"></path></marker><marker id="SvgjsMarker1382" markerWidth="16" markerHeight="12" refX="16" refY="6" viewBox="0 0 16 12" orient="auto" markerUnits="userSpaceOnUse"><path id="SvgjsPath1383" d="M0,2 L14,6 L0,11 L0,2" fill="#323232" stroke="#323232" stroke-width="2"></path></marker><marker id="SvgjsMarker1394" markerWidth="16" markerHeight="12" refX="16" refY="6" viewBox="0 0 16 12" orient="auto" markerUnits="userSpaceOnUse"><path id="SvgjsPath1395" d="M0,2 L14,6 L0,11 L0,2" fill="#323232" stroke="#323232" stroke-width="2"></path></marker><marker id="SvgjsMarker1416" markerWidth="16" markerHeight="12" refX="16" refY="6" viewBox="0 0 16 12" orient="auto" markerUnits="userSpaceOnUse"><path id="SvgjsPath1417" d="M0,2 L14,6 L0,11 L0,2" fill="#323232" stroke="#323232" stroke-width="2"></path></marker><marker id="SvgjsMarker1426" markerWidth="16" markerHeight="12" refX="16" refY="6" viewBox="0 0 16 12" orient="auto" markerUnits="userSpaceOnUse"><path id="SvgjsPath1427" d="M0,2 L14,6 L0,11 L0,2" fill="#323232" stroke="#323232" stroke-width="2"></path></marker><marker id="SvgjsMarker1430" markerWidth="16" markerHeight="12" refX="16" refY="6" viewBox="0 0 16 12" orient="auto" markerUnits="userSpaceOnUse"><path id="SvgjsPath1431" d="M0,2 L14,6 L0,11 L0,2" fill="#323232" stroke="#323232" stroke-width="2"></path></marker><marker id="SvgjsMarker1470" markerWidth="16" markerHeight="12" refX="16" refY="6" viewBox="0 0 16 12" orient="auto" markerUnits="userSpaceOnUse"><path id="SvgjsPath1471" d="M0,2 L14,6 L0,11 L0,2" fill="#323232" stroke="#323232" stroke-width="2"></path></marker><marker id="SvgjsMarker1474" markerWidth="16" markerHeight="12" refX="16" refY="6" viewBox="0 0 16 12" orient="auto" markerUnits="userSpaceOnUse"><path id="SvgjsPath1475" d="M0,2 L14,6 L0,11 L0,2" fill="#323232" stroke="#323232" stroke-width="2"></path></marker></defs><g id="SvgjsG1336" transform="translate(78,25)"><path id="SvgjsPath1337" d="M 0 4Q 0 0 4 0L 170 0Q 174 0 174 4L 174 37Q 174 41 170 41L 4 41Q 0 41 0 37Z" stroke="#323232" stroke-width="2" fill-opacity="1" fill="#ffffff"></path><g id="SvgjsG1338"><text id="SvgjsText1339" font-family="微软雅黑" text-anchor="middle" font-size="18px" width="67" fill="#323232" font-weight="400" align="middle" anchor="middle" family="微软雅黑" size="18px" weight="400" font-style="" y="6.300000000000001" transform="rotate(0)"><tspan id="SvgjsTspan1340" dy="22" x="87"><tspan id="SvgjsTspan1341" style="text-decoration:;">判断this</tspan></tspan></text></g></g><g id="SvgjsG1342"><path id="SvgjsPath1343" d="M165 66L165 101.5L164 101.5L164 137" stroke="#323232" stroke-width="2" fill="none" marker-end="url(#SvgjsMarker1344)"></path></g><g id="SvgjsG1346" transform="translate(25,137)"><path id="SvgjsPath1347" d="M 0 43L 139 0L 278 43L 139 86L 0 43Z" stroke="#323232" stroke-width="2" fill-opacity="1" fill="#ffffff"></path><g id="SvgjsG1348"><text id="SvgjsText1349" font-family="微软雅黑" text-anchor="middle" font-size="18px" width="180" fill="#323232" font-weight="400" align="middle" anchor="middle" family="微软雅黑" size="18px" weight="400" font-style="" y="28.8" transform="rotate(0)"><tspan id="SvgjsTspan1350" dy="22" x="139"><tspan id="SvgjsTspan1351" style="text-decoration:;">是否是通过new调用？</tspan></tspan></text></g></g><g id="SvgjsG1352"><path id="SvgjsPath1353" d="M164 223L164 265.25L164 265.25L164 307.5" stroke="#323232" stroke-width="2" fill="none" marker-end="url(#SvgjsMarker1354)"></path></g><g id="SvgjsG1356" transform="translate(41,307.5)"><path id="SvgjsPath1357" d="M 14.5 0L 231.5 0C 250.83333333333334 0 250.83333333333334 43.5 231.5 43.5L 14.5 43.5C -4.833333333333333 43.5 -4.833333333333333 0 14.5 0Z" stroke="#323232" stroke-width="2" fill-opacity="1" fill="#ffffff"></path><g id="SvgjsG1358"><text id="SvgjsText1359" font-family="微软雅黑" text-anchor="middle" font-size="18px" width="211" fill="#323232" font-weight="400" align="middle" anchor="middle" family="微软雅黑" size="18px" weight="400" font-style="" y="7.550000000000001" transform="rotate(0)"><tspan id="SvgjsTspan1360" dy="22" x="123"><tspan id="SvgjsTspan1361" style="text-decoration:;">this绑定的是新创建的对象</tspan></tspan></text></g></g><g id="SvgjsG1362" transform="translate(69,230)"><path id="SvgjsPath1363" d="M 0 0L 160 0L 160 41L 0 41Z" stroke="none" fill="none"></path><g id="SvgjsG1364"><text id="SvgjsText1365" font-family="微软雅黑" text-anchor="middle" font-size="18px" width="18" fill="#323232" font-weight="400" align="middle" anchor="middle" family="微软雅黑" size="18px" weight="400" font-style="" y="6.300000000000001" transform="rotate(0)"><tspan id="SvgjsTspan1366" dy="22" x="80"><tspan id="SvgjsTspan1367" style="text-decoration:;">是</tspan></tspan></text></g></g><g id="SvgjsG1368"><path id="SvgjsPath1369" d="M303 180L334.875 180L334.875 180L367 180" stroke="#323232" stroke-width="2" fill="none" marker-end="url(#SvgjsMarker1370)"></path></g><g id="SvgjsG1372" transform="translate(374,137)"><path id="SvgjsPath1373" d="M 0 43L 139 0L 278 43L 139 86L 0 43Z" stroke="#323232" stroke-width="2" fill-opacity="1" fill="#ffffff"></path><g id="SvgjsG1374"><text id="SvgjsText1375" font-family="微软雅黑" text-anchor="middle" font-size="18px" width="247" fill="#323232" font-weight="400" align="middle" anchor="middle" family="微软雅黑" size="18px" weight="400" font-style="" y="17.3" transform="rotate(0)"><tspan id="SvgjsTspan1376" dy="22" x="139"><tspan id="SvgjsTspan1377" style="text-decoration:;">函数是否是通过call、bind或硬</tspan></tspan><tspan id="SvgjsTspan1378" dy="22" x="139"><tspan id="SvgjsTspan1379" style="text-decoration:;">绑定？</tspan></tspan></text></g></g><g id="SvgjsG1380"><path id="SvgjsPath1381" d="M652 180L682.5 180L682.5 180L715 180" stroke="#323232" stroke-width="2" fill="none" marker-end="url(#SvgjsMarker1382)"></path></g><g id="SvgjsG1384" transform="translate(715,137)"><path id="SvgjsPath1385" d="M 0 43L 139 0L 278 43L 139 86L 0 43Z" stroke="#323232" stroke-width="2" fill-opacity="1" fill="#ffffff"></path><g id="SvgjsG1386"><text id="SvgjsText1387" font-family="微软雅黑" text-anchor="middle" font-size="18px" width="216" fill="#323232" font-weight="400" align="middle" anchor="middle" family="微软雅黑" size="18px" weight="400" font-style="" y="17.3" transform="rotate(0)"><tspan id="SvgjsTspan1388" dy="22" x="139"><tspan id="SvgjsTspan1389" style="text-decoration:;">上下文对象中调用（隐式绑</tspan></tspan><tspan id="SvgjsTspan1390" dy="22" x="139"><tspan id="SvgjsTspan1391" style="text-decoration:;">定）？</tspan></tspan></text></g></g><g id="SvgjsG1392"><path id="SvgjsPath1393" d="M993 180L1028.5 180L1028.5 180L1065 180" stroke="#323232" stroke-width="2" fill="none" marker-end="url(#SvgjsMarker1394)"></path></g><g id="SvgjsG1396" transform="translate(1069,146)"><path id="SvgjsPath1397" d="M 0 34L 139 0L 278 34L 139 68L 0 34Z" stroke="#323232" stroke-width="2" fill-opacity="1" fill="#ffffff"></path><g id="SvgjsG1398"><text id="SvgjsText1399" font-family="微软雅黑" text-anchor="middle" font-size="18px" width="72" fill="#323232" font-weight="400" align="middle" anchor="middle" family="微软雅黑" size="18px" weight="400" font-style="" y="19.8" transform="rotate(0)"><tspan id="SvgjsTspan1400" dy="22" x="139"><tspan id="SvgjsTspan1401" style="text-decoration:;">默认绑定</tspan></tspan></text></g></g><g id="SvgjsG1402" transform="translate(252,140.5)"><path id="SvgjsPath1403" d="M 0 0L 160 0L 160 41L 0 41Z" stroke="none" fill="none"></path><g id="SvgjsG1404"><text id="SvgjsText1405" font-family="微软雅黑" text-anchor="middle" font-size="18px" width="18" fill="#323232" font-weight="400" align="middle" anchor="middle" family="微软雅黑" size="18px" weight="400" font-style="" y="6.300000000000001" transform="rotate(0)"><tspan id="SvgjsTspan1406" dy="22" x="80"><tspan id="SvgjsTspan1407" style="text-decoration:;">否</tspan></tspan></text></g></g><g id="SvgjsG1408" transform="translate(409,311)"><path id="SvgjsPath1409" d="M 13 0L 195 0C 212.33333333333334 0 212.33333333333334 39 195 39L 13 39C -4.333333333333333 39 -4.333333333333333 0 13 0Z" stroke="#323232" stroke-width="2" fill-opacity="1" fill="#ffffff"></path><g id="SvgjsG1410"><text id="SvgjsText1411" font-family="微软雅黑" text-anchor="middle" font-size="18px" width="126" fill="#323232" font-weight="400" align="middle" anchor="middle" family="微软雅黑" size="18px" weight="400" font-style="" y="5.300000000000001" transform="rotate(0)"><tspan id="SvgjsTspan1412" dy="22" x="104"><tspan id="SvgjsTspan1413" style="text-decoration:;">绑定指定的对象</tspan></tspan></text></g></g><g id="SvgjsG1414"><path id="SvgjsPath1415" d="M513 223L513 267L513 267L513 311" stroke="#323232" stroke-width="2" fill="none" marker-end="url(#SvgjsMarker1416)"></path></g><g id="SvgjsG1418" transform="translate(751.125,303)"><path id="SvgjsPath1419" d="M 16 0L 189.75 0C 211.08333333333334 0 211.08333333333334 48 189.75 48L 16 48C -5.333333333333333 48 -5.333333333333333 0 16 0Z" stroke="#323232" stroke-width="2" fill-opacity="1" fill="#ffffff"></path><g id="SvgjsG1420"><text id="SvgjsText1421" font-family="微软雅黑" text-anchor="middle" font-size="18px" width="126" fill="#323232" font-weight="400" align="middle" anchor="middle" family="微软雅黑" size="18px" weight="400" font-style="" y="9.8" transform="rotate(0)"><tspan id="SvgjsTspan1422" dy="22" x="103"><tspan id="SvgjsTspan1423" style="text-decoration:;">绑定上下文对象</tspan></tspan></text></g></g><g id="SvgjsG1424"><path id="SvgjsPath1425" d="M854 223L854 263L854 263L854 303" stroke="#323232" stroke-width="2" fill="none" marker-end="url(#SvgjsMarker1426)"></path></g><g id="SvgjsG1428"><path id="SvgjsPath1429" d="M1208 214L1208 264.75L1208 264.75L1208 315.5" stroke="#323232" stroke-width="2" fill="none" marker-end="url(#SvgjsMarker1430)"></path></g><g id="SvgjsG1432" transform="translate(416,242.5)"><path id="SvgjsPath1433" d="M 0 0L 160 0L 160 41L 0 41Z" stroke="none" fill="none"></path><g id="SvgjsG1434"><text id="SvgjsText1435" font-family="微软雅黑" text-anchor="middle" font-size="18px" width="18" fill="#323232" font-weight="400" align="middle" anchor="middle" family="微软雅黑" size="18px" weight="400" font-style="" y="6.300000000000001" transform="rotate(0)"><tspan id="SvgjsTspan1436" dy="22" x="80"><tspan id="SvgjsTspan1437" style="text-decoration:;">是</tspan></tspan></text></g></g><g id="SvgjsG1438" transform="translate(1104,242.5)"><path id="SvgjsPath1439" d="M 0 0L 160 0L 160 41L 0 41Z" stroke="none" fill="none"></path><g id="SvgjsG1440"><text id="SvgjsText1441" font-family="微软雅黑" text-anchor="middle" font-size="18px" width="18" fill="#323232" font-weight="400" align="middle" anchor="middle" family="微软雅黑" size="18px" weight="400" font-style="" y="6.300000000000001" transform="rotate(0)"><tspan id="SvgjsTspan1442" dy="22" x="80"><tspan id="SvgjsTspan1443" style="text-decoration:;">是</tspan></tspan></text></g></g><g id="SvgjsG1444" transform="translate(751.125,242.5)"><path id="SvgjsPath1445" d="M 0 0L 160 0L 160 41L 0 41Z" stroke="none" fill="none"></path><g id="SvgjsG1446"><text id="SvgjsText1447" font-family="微软雅黑" text-anchor="middle" font-size="18px" width="18" fill="#323232" font-weight="400" align="middle" anchor="middle" family="微软雅黑" size="18px" weight="400" font-style="" y="6.300000000000001" transform="rotate(0)"><tspan id="SvgjsTspan1448" dy="22" x="80"><tspan id="SvgjsTspan1449" style="text-decoration:;">是</tspan></tspan></text></g></g><g id="SvgjsG1450" transform="translate(602,140.5)"><path id="SvgjsPath1451" d="M 0 0L 160 0L 160 41L 0 41Z" stroke="none" fill="none"></path><g id="SvgjsG1452"><text id="SvgjsText1453" font-family="微软雅黑" text-anchor="middle" font-size="18px" width="18" fill="#323232" font-weight="400" align="middle" anchor="middle" family="微软雅黑" size="18px" weight="400" font-style="" y="6.300000000000001" transform="rotate(0)"><tspan id="SvgjsTspan1454" dy="22" x="80"><tspan id="SvgjsTspan1455" style="text-decoration:;">  否</tspan></tspan></text></g></g><g id="SvgjsG1456" transform="translate(941,140.5)"><path id="SvgjsPath1457" d="M 0 0L 160 0L 160 41L 0 41Z" stroke="none" fill="none"></path><g id="SvgjsG1458"><text id="SvgjsText1459" font-family="微软雅黑" text-anchor="middle" font-size="18px" width="18" fill="#323232" font-weight="400" align="middle" anchor="middle" family="微软雅黑" size="18px" weight="400" font-style="" y="6.300000000000001" transform="rotate(0)"><tspan id="SvgjsTspan1460" dy="22" x="80"><tspan id="SvgjsTspan1461" style="text-decoration:;">  否</tspan></tspan></text></g></g><g id="SvgjsG1462" transform="translate(1131.25,315.5)"><path id="SvgjsPath1463" d="M 0 34L 76.75 0L 153.5 34L 76.75 68L 0 34Z" stroke="#323232" stroke-width="2" fill-opacity="1" fill="#ffffff"></path><g id="SvgjsG1464"><text id="SvgjsText1465" font-family="微软雅黑" text-anchor="middle" font-size="18px" width="90" fill="#323232" font-weight="400" align="middle" anchor="middle" family="微软雅黑" size="18px" weight="400" font-style="" y="19.8" transform="rotate(0)"><tspan id="SvgjsTspan1466" dy="22" x="77"><tspan id="SvgjsTspan1467" style="text-decoration:;">严格模式？</tspan></tspan></text></g></g><g id="SvgjsG1468"><path id="SvgjsPath1469" d="M1207.5 383.5L1207.5 416.25L1207.5 416.25L1207.5 449" stroke="#323232" stroke-width="2" fill="none" marker-end="url(#SvgjsMarker1470)"></path></g><g id="SvgjsG1472"><path id="SvgjsPath1473" d="M1284.75 349.5L1304.875 349.5L1304.875 349.5L1325 349.5" stroke="#323232" stroke-width="2" fill="none" marker-end="url(#SvgjsMarker1474)"></path></g><g id="SvgjsG1476" transform="translate(1325,324.5)"><path id="SvgjsPath1477" d="M 16.666666666666668 0L 105.33333333333333 0C 127.55555555555556 0 127.55555555555556 50 105.33333333333333 50L 16.666666666666668 50C -5.555555555555556 50 -5.555555555555556 0 16.666666666666668 0Z" stroke="#323232" stroke-width="2" fill-opacity="1" fill="#ffffff"></path><g id="SvgjsG1478"><text id="SvgjsText1479" font-family="微软雅黑" text-anchor="middle" font-size="18px" width="88" fill="#323232" font-weight="400" align="middle" anchor="middle" family="微软雅黑" size="18px" weight="400" font-style="" y="-0.6999999999999997" transform="rotate(0)"><tspan id="SvgjsTspan1480" dy="22" x="61"><tspan id="SvgjsTspan1481" style="text-decoration:;">绑定</tspan></tspan><tspan id="SvgjsTspan1482" dy="22" x="61"><tspan id="SvgjsTspan1483" style="text-decoration:;">undefined</tspan></tspan></text></g></g><g id="SvgjsG1484" transform="translate(1158,455)"><path id="SvgjsPath1485" d="M 16.666666666666668 0L 83.33333333333333 0C 105.55555555555556 0 105.55555555555556 50 83.33333333333333 50L 16.666666666666668 50C -5.555555555555556 50 -5.555555555555556 0 16.666666666666668 0Z" stroke="#323232" stroke-width="2" fill-opacity="1" fill="#ffffff"></path><g id="SvgjsG1486"><text id="SvgjsText1487" font-family="微软雅黑" text-anchor="middle" font-size="18px" width="72" fill="#323232" font-weight="400" align="middle" anchor="middle" family="微软雅黑" size="18px" weight="400" font-style="" y="-0.6999999999999997" transform="rotate(0)"><tspan id="SvgjsTspan1488" dy="22" x="50"><tspan id="SvgjsTspan1489" style="text-decoration:;">绑定全局</tspan></tspan><tspan id="SvgjsTspan1490" dy="22" x="50"><tspan id="SvgjsTspan1491" style="text-decoration:;">对象</tspan></tspan></text></g></g><g id="SvgjsG1492" transform="translate(1109,399)"><path id="SvgjsPath1493" d="M 0 0L 160 0L 160 41L 0 41Z" stroke="none" fill="none"></path><g id="SvgjsG1494"><text id="SvgjsText1495" font-family="微软雅黑" text-anchor="middle" font-size="18px" width="18" fill="#323232" font-weight="400" align="middle" anchor="middle" family="微软雅黑" size="18px" weight="400" font-style="" y="6.300000000000001" transform="rotate(0)"><tspan id="SvgjsTspan1496" dy="22" x="80"><tspan id="SvgjsTspan1497" style="text-decoration:;">是</tspan></tspan></text></g></g><g id="SvgjsG1498" transform="translate(1220,310)"><path id="SvgjsPath1499" d="M 0 0L 160 0L 160 41L 0 41Z" stroke="none" fill="none"></path><g id="SvgjsG1500"><text id="SvgjsText1501" font-family="微软雅黑" text-anchor="middle" font-size="18px" width="18" fill="#323232" font-weight="400" align="middle" anchor="middle" family="微软雅黑" size="18px" weight="400" font-style="" y="6.300000000000001" transform="rotate(0)"><tspan id="SvgjsTspan1502" dy="22" x="80"><tspan id="SvgjsTspan1503" style="text-decoration:;">  否</tspan></tspan></text></g></g></svg>